HIERARCHY
ROOT Hips
{
  OFFSET 13.6774 106.653 -34.4427
  CHANNELS 6 Xposition Yposition Zposition Zrotation Xrotation Yrotation
  JOINT ToSpine
  {
    OFFSET -2.69724 7.43032 -0.144315
    CHANNELS 3 Zrotation Xrotation Yrotation
    JOINT Spine
    {
      OFFSET -0.0310711 10.7595 1.96963
      CHANNELS 3 Zrotation Xrotation Yrotation
      JOINT Spine1
      {
        OFFSET 19.9056 3.91189 0.764692
        CHANNELS 3 Zrotation Xrotation Yrotation
        JOINT Neck
        {
          OFFSET 25.9749 7.03908 -0.130764
          CHANNELS 3 Zrotation Xrotation Yrotation
          JOINT Head
          {
            OFFSET 9.52751 0.295786 -0.907742
            CHANNELS 3 Zrotation Xrotation Yrotation
            End Site
            {
              OFFSET 16.4037 0.713936 2.7358
            }
          }
        }
        JOINT LeftShoulder
        {
          OFFSET 17.7449 4.33886 11.7777
          CHANNELS 3 Zrotation Xrotation Yrotation
          JOINT LeftArm
          {
            OFFSET 0.911315 1.27913 9.80584
            CHANNELS 3 Zrotation Xrotation Yrotation
            JOINT LeftForeArm
            {
              OFFSET 28.6126 1.18197 -3.53199
              CHANNELS 3 Zrotation Xrotation Yrotation
              JOINT LeftHand
              {
                OFFSET 27.5088 0.0218783 0.327423
                CHANNELS 3 Zrotation Xrotation Yrotation
                End Site
                {
                  OFFSET 18.6038 -0.000155887 0.382096
                }
              }
            }
          }
        }
        JOINT RightShoulder
        {
          OFFSET 17.1009 2.89543 -12.2328
          CHANNELS 3 Zrotation Xrotation Yrotation
          JOINT RightArm
          {
            OFFSET 1.4228 0.178766 -10.211
            CHANNELS 3 Zrotation Xrotation Yrotation
            JOINT RightForeArm
            {
              OFFSET 28.733 1.87905 2.64907
              CHANNELS 3 Zrotation Xrotation Yrotation
              JOINT RightHand
              {
                OFFSET 27.4588 0.290562 -0.101845
                CHANNELS 3 Zrotation Xrotation Yrotation
                End Site
                {
                  OFFSET 17.8396 -0.255518 -0.000602873
                }
              }
            }
          }
        }
      }
    }
  }
  JOINT LeftUpLeg
  {
    OFFSET -5.61296 -2.22332 -10.2353
    CHANNELS 3 Zrotation Xrotation Yrotation
    JOINT LeftLeg
    {
      OFFSET 2.56703 -44.7417 -7.93097
      CHANNELS 3 Zrotation Xrotation Yrotation
      JOINT LeftFoot
      {
        OFFSET 3.16933 -46.5642 -3.96578
        CHANNELS 3 Zrotation Xrotation Yrotation
        JOINT LeftToeBase
        {
          OFFSET 0.346054 -6.02161 12.8035
          CHANNELS 3 Zrotation Xrotation Yrotation
          End Site
          {
            OFFSET 0.134235 -1.35082 5.13018
          }
        }
      }
    }
  }
  JOINT RightUpLeg
  {
    OFFSET -5.7928 -1.72406 10.6446
    CHANNELS 3 Zrotation Xrotation Yrotation
    JOINT RightLeg
    {
      OFFSET -2.57161 -44.7178 -7.85259
      CHANNELS 3 Zrotation Xrotation Yrotation
      JOINT RightFoot
      {
        OFFSET -3.10148 -46.5936 -4.03391
        CHANNELS 3 Zrotation Xrotation Yrotation
        JOINT RightToeBase
        {
          OFFSET -0.0828122 -6.13587 12.8035
          CHANNELS 3 Zrotation Xrotation Yrotation
          End Site
          {
            OFFSET -0.131328 -1.35082 5.13018
          }
        }
      }
    }
  }
}
MOTION
Frames: 17
Frame Time: 0.03333333333333333
0.0000 93.1000 0.0000 29.9087 50.8082 46.5031 -71.1213 -1.3308 87.5606 151.3432 67.0411 -58.8595 3.3563 27.1514 1.1170 -164.9617 24.0375 170.1188 -147.4760 62.1915 171.7028 0.8892 -3.8338 -18.9236 -95.0630 35.7488 -57.2031 -13.5109 51.5502 3.3367 14.8743 -1.1450 -0.7963 -1.3371 1.3237 14.1860 -89.2769 -50.3144 123.7040 9.9197 -3.1814 72.7589 10.3939 0.2388 2.9634 1.7916 -2.6189 82.9447 -162.1972 73.4670 153.9137 5.8968 1.8100 0.4537 -8.6150 -37.1479 15.1140 -54.9926 7.5397 85.0603 5.7129 56.7121 16.7758 -10.6760 -14.5306 -0.3000 6.6411 -15.3552 -16.7442 
0.0000 93.1000 0.0000 30.1898 49.4296 41.1133 -70.8641 -0.8276 87.1730 151.1936 68.7782 -62.1001 3.2342 28.4608 -3.3262 -162.8568 25.7096 170.4742 -150.5649 63.8850 172.4743 0.9610 -4.6671 -19.6098 -94.1779 37.0172 -60.3801 -14.8437 50.9847 6.2265 13.7566 -0.9957 -1.4280 -0.8444 0.4240 13.3755 -86.7433 -48.7406 123.3986 13.8074 -2.9414 79.5587 9.2395 0.0283 4.4397 3.7640 -1.3486 90.5803 -86.5766 85.2252 77.0686 4.5841 0.7288 -0.0603 -8.9360 -39.5351 15.2583 -63.7277 4.2972 92.5692 2.7223 45.2031 10.9231 -7.6810 -12.7300 -0.0017 -7.8331 4.9622 -3.3249 
0.0000 93.1000 0.0000 27.0577 49.2513 43.3510 -70.7342 0.6148 87.2118 143.3239 70.2302 -54.6323 6.1608 28.0604 -6.6242 -159.8222 25.8363 168.7667 -151.3618 64.1504 174.1555 1.5393 -3.7743 -22.7205 -91.9854 36.6832 -69.2574 -14.8446 48.3617 5.7600 12.8791 -0.2911 -3.0786 0.4537 0.0311 15.7335 -79.0452 -46.2617 123.8062 15.3237 -3.6962 77.7189 9.1301 -0.8594 6.4766 -0.3221 -0.5577 96.6094 -13.1152 75.5427 0.3680 3.6141 2.9479 -2.3167 -9.0777 -39.1894 15.8994 -67.3132 3.5643 91.9102 1.5258 42.3094 5.0899 -2.3796 0.5561 0.9440 -39.1670 41.9013 37.8209 
0.0000 93.1000 0.0000 26.2464 51.7531 45.1432 -70.6315 0.7962 87.2550 136.3130 70.0759 -48.7667 10.1158 25.9728 -7.9529 -157.5965 24.4964 167.1782 -151.3486 63.3689 172.4612 1.8060 -2.5549 -26.8930 -87.7219 37.3630 -84.2407 -9.7368 38.4810 -2.1785 13.0072 -0.3013 -3.8699 0.3782 0.5863 19.9765 -72.0047 -45.5425 122.9198 12.5162 -4.9927 68.1229 7.1524 -0.8095 6.4419 -7.5713 0.1969 100.2435 -10.2025 71.0057 -3.8829 2.6622 3.3270 -2.2083 -8.2694 -36.5530 16.9960 -64.8137 6.6986 90.5477 4.5230 63.5300 1.5035 -4.0852 -0.1128 1.0190 -43.3685 51.1124 39.5166 
0.0000 93.1000 0.0000 27.2273 56.9010 42.6902 -70.5184 1.2060 87.3564 133.2072 68.1607 -50.7489 12.6992 23.6110 -7.3306 -155.5282 23.7505 165.2711 -151.5692 62.5495 175.4370 2.3615 -1.7825 -29.3320 -72.1076 33.3192 -107.3852 -2.1134 22.5968 -12.8923 15.5564 -1.1614 -3.6867 0.1528 0.5758 23.8810 -65.7518 -45.1963 119.3887 13.9681 -8.8483 54.6903 5.6547 0.0892 4.3552 -20.0057 -2.5966 101.3989 -9.2326 67.6442 -7.3310 4.0066 -1.1463 -1.7436 -7.6988 -29.7910 13.5878 -57.9379 6.9157 87.9279 68.6764 85.0554 -66.6846 -3.7673 0.5737 0.0976 -22.5120 47.6340 6.6486 
0.0000 93.1000 0.0000 24.3840 59.6059 41.6390 -70.9883 1.4398 87.4953 130.1322 66.2316 -52.7328 11.2252 22.1570 -7.0074 -154.4533 23.7284 166.4789 -152.5957 63.0772 177.7004 2.7919 -0.8241 -30.5604 -60.1854 24.5378 -127.3915 3.4684 6.5910 -21.9192 17.1798 -1.5471 -3.7976 0.3937 0.0735 29.0438 -61.0862 -46.8289 112.5178 12.9613 -12.3033 41.7540 6.7149 0.3268 2.2381 -30.8968 -10.1547 99.7667 -5.9502 62.2104 -11.1453 6.5395 6.6651 -1.4366 -10.3828 -45.4335 9.6043 -45.9863 2.6417 87.5723 166.2830 68.1503 -165.0334 -5.0394 -1.9132 0.7235 -7.5562 39.5478 -7.9545 
0.0000 93.1000 0.0000 12.2965 62.2662 52.2615 -70.9509 -1.9505 87.5786 123.2603 65.2976 -48.0188 7.3919 20.4117 -6.3070 -155.4190 24.8300 166.7609 -155.4315 64.2098 179.2947 0.7739 -2.2962 -28.9216 -70.3012 29.1257 -139.7227 7.9945 9.4774 -33.1606 17.2091 -1.6901 -3.6877 -2.3006 0.8868 29.7733 -62.8848 -53.1674 96.8780 15.6794 -15.4874 40.0186 4.9675 0.2367 -0.1733 -37.2266 -16.3428 91.7415 -5.2619 58.2283 -7.5711 8.4706 1.3195 0.3767 -10.9078 -47.3268 10.3170 -24.8105 0.4010 87.5271 169.6898 52.3102 -170.0935 -5.9914 -1.4926 -2.4823 1.2565 20.1028 -21.7953 
0.0000 93.1000 0.0000 8.1942 61.8933 58.5763 -70.8223 2.1984 86.8492 119.8215 65.5548 -45.1265 4.7465 18.6940 -2.1725 -157.2190 23.6800 167.8503 -158.6703 64.0289 -179.7510 3.2836 -2.3159 -25.2009 -76.4518 34.7262 -146.3224 15.4496 10.5469 -51.1622 18.3718 -2.5547 -6.2591 0.7135 0.9322 29.5086 -66.8450 -59.6541 80.8411 16.0672 -15.2264 41.7672 6.0913 1.0400 1.5544 -48.1126 -17.0436 85.0751 -3.9071 52.0544 -9.7896 7.9131 -0.6322 -2.5307 -10.0403 -46.7592 12.6478 -8.4814 0.2867 92.2110 169.7447 52.6344 -170.1711 -8.0970 -3.7317 3.2229 7.7009 4.4579 -22.1694 
0.0000 93.1000 0.0000 10.0907 59.1302 62.8002 -71.0030 0.4539 87.3665 114.3811 64.6736 -36.2351 3.3722 17.8149 -0.0704 -158.3862 22.5070 170.8305 -155.9715 62.1744 177.0086 2.1429 -2.0397 -23.2527 -78.8492 37.0948 -145.4920 21.9409 8.7605 -66.8369 20.5499 -2.5148 -6.5286 -0.7784 1.9454 25.1356 -63.0328 -63.6793 77.0351 11.2997 -10.7147 41.3015 4.9286 0.9389 1.2243 -57.5994 -8.4893 82.9686 -1.3685 43.6277 -16.9342 4.8387 -4.0209 -1.1215 -7.6438 -35.6425 16.4661 2.4890 0.9059 90.6295 167.4243 66.6108 -166.7475 -9.0867 -4.8316 1.5388 8.0228 -7.0176 -20.3596 
0.0000 93.1000 0.0000 17.9163 57.6353 60.1075 -70.9863 0.1069 87.1176 117.9143 63.2560 -36.9791 3.7494 16.8473 2.4698 -159.2795 21.0784 170.9591 -152.5509 59.5632 172.6489 1.5994 -1.6214 -22.5466 -78.2694 38.2968 -138.2456 24.4425 7.3963 -75.1746 20.9305 -1.9464 -6.1478 -0.9482 2.2446 24.9925 -59.9065 -64.5423 74.9264 6.7328 -5.9751 39.8451 3.8208 0.3927 1.4749 -68.9253 1.2524 92.4445 5.0034 36.7707 -26.8905 -0.4969 -0.6676 -0.1836 -5.2471 -11.3767 10.7176 2.9811 3.3458 87.1936 81.1870 84.2467 -81.0166 -8.0041 -5.8357 1.1440 9.0881 -13.6375 -19.2353 
0.0000 93.1000 0.0000 24.9677 57.1905 53.9847 -71.0219 -0.2255 87.0083 119.1788 62.9901 -36.6047 6.1164 16.9424 2.5562 -160.0894 18.6561 170.2139 -150.5379 56.9664 169.2003 1.6043 -1.7041 -22.3047 -77.5568 38.9518 -128.1835 21.0533 8.2133 -68.0432 19.3948 -1.8228 -5.7862 -1.2021 2.9523 27.8558 -61.9755 -62.4460 75.9700 2.3948 0.3128 37.9958 3.5491 0.3299 1.4337 -72.8136 -0.1287 78.9305 -3.3950 44.2395 -11.0949 0.2529 6.1021 0.2165 -5.8286 -11.7290 17.5568 -2.5022 2.8073 83.5459 4.4121 65.7400 -0.8521 -7.9658 -1.1576 0.5208 8.9481 -19.1019 -15.8235 
0.0000 93.1000 0.0000 31.5444 56.7744 48.9459 -71.0126 0.0340 86.8088 121.2625 63.1880 -37.0023 11.0400 16.9888 0.8696 -160.3871 18.6470 171.6528 -151.6938 56.4166 169.7308 1.7972 -1.5943 -23.8512 -73.7765 38.6635 -125.1020 15.0388 11.1193 -48.0571 16.0683 -1.3328 -4.7768 -0.4353 2.2670 29.5215 -67.1115 -57.7864 76.2301 -0.2923 2.9192 40.5690 2.3004 -0.1077 2.2890 -69.2656 -4.1272 77.0843 -9.5469 70.0396 -2.4022 -0.9361 8.9944 -0.2805 -5.9314 -19.8649 17.0825 -7.4463 0.4516 79.8219 2.9653 56.2849 1.1099 -4.3440 -1.5236 0.0003 5.0729 -2.6067 -13.0885 
0.0000 93.1000 0.0000 42.7340 55.8434 41.8001 -71.1042 0.7294 86.9635 125.1565 63.6893 -37.5982 14.3491 18.0612 0.5284 -159.1257 17.6477 173.2502 -148.2940 55.1441 170.1598 2.4874 -0.9666 -26.9481 -62.9138 34.2942 -127.2033 7.2102 12.0841 -25.1809 16.1919 -1.3412 -4.8936 -0.0575 0.9771 30.2540 -70.7683 -54.8186 80.2368 0.5127 2.2640 42.7930 3.1967 0.1584 2.6113 -64.0094 -1.2872 79.8778 -142.2043 81.6170 130.8333 -0.2936 7.4692 -1.1023 -5.8007 -15.1157 12.9307 -13.9395 2.9616 73.1774 4.0110 58.7510 2.7761 -5.6262 -2.4338 0.5347 4.7371 3.8876 -18.0106 
0.0000 93.1000 0.0000 50.7457 52.6754 36.6302 -70.8822 0.2904 86.9639 130.0094 63.0004 -39.5082 13.9044 18.9631 0.2672 -160.4374 16.5812 172.8472 -145.9581 53.3319 168.0240 2.4828 -0.0849 -29.5168 -81.3652 41.5225 -106.2636 0.9052 38.4407 -13.1218 15.2450 -1.2922 -2.4867 -0.6222 -0.2356 31.1154 -74.1981 -51.4786 86.6203 2.6424 -0.7372 44.2554 4.0700 0.3421 1.6216 -53.1041 3.0538 80.9020 -167.7005 61.4242 156.8879 1.9101 7.1179 -0.4116 -5.9056 -18.2039 15.6407 -21.2242 9.3170 69.7902 6.4989 65.1804 4.5932 -5.6736 -6.8851 -0.2598 7.3435 -1.0601 -23.1914 
0.0000 93.1000 0.0000 52.7828 48.8932 39.0720 -70.9679 0.5430 87.0511 133.0766 64.1532 -38.1475 11.6850 19.5147 1.9107 -162.5663 15.8856 171.7361 -148.3402 53.2265 168.2119 2.8309 0.2962 -31.7052 -86.8027 40.0940 -90.8737 -6.2503 50.3996 -5.3234 15.6096 -1.4541 -1.2457 -0.5175 -0.5777 28.9154 -82.6889 -51.3906 87.9905 3.9410 -2.0302 49.8242 4.8888 0.7327 1.7836 -35.2049 4.9630 74.3396 -171.0954 48.1449 159.8737 3.6848 6.0124 -0.4879 -6.1272 -18.7727 15.2684 -27.0816 15.0962 69.1767 8.8288 67.2395 4.8919 -6.9017 -6.7929 0.1139 11.0578 -20.6285 -23.1499 
0.0000 93.1000 0.0000 52.9963 44.8815 39.2061 -70.9321 -0.2267 87.1705 132.9787 66.3822 -35.4927 7.8959 21.7252 3.8122 -162.2344 16.4868 173.6943 -149.6382 54.0695 169.2697 2.3866 0.6779 -31.8525 -80.7630 39.9802 -87.4071 -13.4604 56.9170 0.7646 19.6003 -1.1048 -0.1287 -0.7877 -0.7176 25.8140 -83.8483 -50.6467 90.8325 4.5535 -1.9477 57.7593 4.7882 0.4271 3.0230 -17.9866 1.6292 71.0841 -170.6264 48.1458 161.9384 3.9794 5.8376 -0.3696 -6.2606 -19.9593 12.4007 -37.0615 17.0669 72.0027 8.6338 66.3314 8.7830 -9.0860 -9.1261 0.0883 11.6938 -29.3089 -20.9661 
0.0000 93.1000 0.0000 54.7111 43.6998 34.8725 -70.7377 -0.3061 87.4118 130.8568 68.9171 -33.8502 4.1346 23.1479 3.5530 -157.3516 16.9728 170.6839 -147.4604 54.4603 167.2674 2.2185 0.0522 -29.1147 -83.9956 41.0586 -77.6264 -17.5962 59.1049 3.9501 20.8190 -0.9887 -0.2667 -0.8465 -0.9145 25.0001 -78.9889 -50.3131 94.4826 5.3638 -1.4332 65.6630 5.2895 0.2988 3.6939 -9.0955 1.3305 72.8683 -168.2924 61.4796 160.4739 4.4532 4.0039 -0.7850 -6.6628 -22.1750 13.7916 -51.9051 17.7542 78.8168 5.5414 57.8972 9.4214 -10.5026 -13.9647 0.7865 9.6853 -22.1160 -18.9150 
